<?xml version="1.0" standalone="no"?>
<!DOCTYPE svg PUBLIC "-//W3C//DTD SVG 20010904//EN"
 "http://www.w3.org/TR/2001/REC-SVG-20010904/DTD/svg10.dtd">
<svg version="1.0" xmlns="http://www.w3.org/2000/svg"
 width="1024.000000pt" height="1024.000000pt" viewBox="0 0 1024.000000 1024.000000"
 preserveAspectRatio="xMidYMid meet">
<metadata>
Created by potrace 1.14, written by Peter Selinger 2001-2017
</metadata>
<g transform="translate(0.000000,1024.000000) scale(0.100000,-0.100000)"
fill="#000000" stroke="none">
<path d="M4302 7949 c-88 -44 -127 -160 -83 -247 34 -66 75 -91 178 -106 136
-20 233 -88 322 -225 36 -56 81 -166 81 -198 0 -7 -20 -42 -44 -77 -59 -87
-87 -164 -93 -261 -7 -101 8 -175 54 -267 145 -289 537 -360 775 -140 46 43
69 76 106 151 l47 96 0 125 c-1 146 -17 200 -91 301 l-45 61 11 50 c19 93 68
178 144 253 85 84 154 120 255 134 83 11 132 42 164 102 26 49 19 135 -15 187
-62 92 -182 106 -337 39 -122 -53 -185 -94 -266 -174 -119 -116 -191 -237
-230 -385 l-18 -68 -63 0 -62 0 -11 50 c-54 250 -285 498 -553 591 -101 35
-166 37 -226 8z"/>
<path d="M3025 7009 c-156 -17 -351 -86 -481 -172 -87 -57 -223 -197 -288
-295 -125 -189 -185 -440 -156 -662 46 -364 318 -698 662 -816 131 -45 219
-54 504 -54 253 0 340 -10 213 -24 -93 -11 -224 -52 -319 -102 -161 -83 -281
-203 -366 -366 -67 -131 -87 -215 -88 -378 0 -149 13 -216 65 -327 16 -34 29
-66 29 -70 0 -19 95 -132 147 -175 252 -209 650 -191 894 39 38 36 71 64 72
62 2 -2 11 -53 21 -114 23 -139 53 -229 126 -380 82 -171 143 -256 268 -376
127 -121 235 -192 389 -254 134 -54 234 -75 388 -82 204 -8 398 33 578 123
136 68 203 118 322 238 86 87 124 135 171 217 67 114 126 246 145 324 6 28 17
59 22 70 15 30 36 134 37 183 0 23 3 42 6 42 3 0 38 -27 77 -61 40 -33 108
-78 152 -100 117 -57 189 -73 330 -73 105 0 130 3 200 28 184 64 313 181 388
353 111 251 84 555 -68 789 -85 130 -255 269 -403 329 -68 28 -225 65 -274 65
-17 0 -28 3 -24 8 4 4 143 10 309 13 257 6 312 9 372 26 207 58 333 129 458
257 98 102 138 157 200 277 89 174 124 340 107 506 -33 315 -199 591 -458 761
-207 136 -484 200 -756 174 -177 -17 -185 -22 -83 -55 205 -67 361 -230 429
-447 20 -66 23 -94 23 -245 0 -166 -1 -172 -33 -264 -46 -132 -100 -232 -181
-331 -126 -156 -239 -243 -436 -340 -159 -78 -285 -124 -465 -168 -345 -87
-549 -49 -715 130 -98 105 -139 215 -138 368 2 170 56 327 179 516 21 32 21
32 -79 -37 -123 -85 -285 -121 -442 -100 -91 13 -176 49 -272 116 -36 25 -67
45 -69 43 -1 -2 11 -24 28 -48 55 -82 127 -238 149 -322 31 -121 24 -262 -20
-372 -48 -120 -113 -198 -221 -263 -200 -121 -485 -101 -896 63 -247 98 -404
195 -535 331 -175 181 -270 389 -285 623 -25 372 159 664 475 755 89 26 81 31
-72 45 -127 11 -198 11 -312 -1z m2305 -1994 c231 -38 465 -155 604 -304 l30
-31 -809 0 -809 0 44 46 c223 230 595 344 940 289z m-109 -754 l1046 -1 32
-82 c35 -94 58 -189 63 -263 l3 -50 -1210 0 -1210 0 3 50 c4 63 37 199 70 288
l25 68 66 -5 c36 -3 537 -5 1112 -5z"/>
</g>
</svg>
